<svg width="24" height="24" viewBox="0 0 24 24" fill="none" xmlns="http://www.w3.org/2000/svg">
  <g clip-path="url(#clip0_403_30)">
    <path d="M15 15C16.6569 15 18 13.6569 18 12C18 10.3431 16.6569 9 15 9C13.3431 9 12 10.3431 12 12C12 13.6569 13.3431 15 15 15Z" stroke="white" stroke-width="1.5" stroke-linecap="round" stroke-linejoin="round"/>
    <path d="M12 9H15C15.7956 9 16.5587 8.68393 17.1213 8.12132C17.6839 7.55871 18 6.79565 18 6C18 5.20435 17.6839 4.44129 17.1213 3.87868C16.5587 3.31607 15.7956 3 15 3H12" stroke="white" stroke-width="1.5" stroke-linecap="round" stroke-linejoin="round"/>
    <path d="M12 3H8.25C7.45435 3 6.69129 3.31607 6.12868 3.87868C5.56607 4.44129 5.25 5.20435 5.25 6C5.25 6.79565 5.56607 7.55871 6.12868 8.12132C6.69129 8.68393 7.45435 9 8.25 9H12V3Z" stroke="white" stroke-width="1.5" stroke-linecap="round" stroke-linejoin="round"/>
    <path d="M12 9H8.25C7.45435 9 6.69129 9.31607 6.12868 9.87868C5.56607 10.4413 5.25 11.2044 5.25 12C5.25 12.7956 5.56607 13.5587 6.12868 14.1213C6.69129 14.6839 7.45435 15 8.25 15H12V9Z" stroke="white" stroke-width="1.5" stroke-linecap="round" stroke-linejoin="round"/>
    <path d="M12 15H8.625C7.95749 15 7.30497 15.1979 6.74995 15.5688C6.19494 15.9396 5.76235 16.4667 5.50691 17.0834C5.25146 17.7001 5.18463 18.3787 5.31485 19.0334C5.44508 19.6881 5.76651 20.2895 6.23852 20.7615C6.71052 21.2335 7.31189 21.5549 7.96657 21.6852C8.62126 21.8154 9.29986 21.7485 9.91656 21.4931C10.5333 21.2376 11.0604 20.8051 11.4312 20.2501C11.8021 19.695 12 19.0425 12 18.375V15Z" stroke="white" stroke-width="1.5" stroke-linecap="round" stroke-linejoin="round"/>
  </g>
  <defs>
    <clipPath id="clip0_403_30">
      <rect width="24" height="24" fill="white"/>
    </clipPath>
  </defs>
</svg>
