<svg width="192" height="40" viewBox="0 0 192 40" fill="none" xmlns="http://www.w3.org/2000/svg">
  <g clip-path="url(#clip0_207_41)">
    <path d="M54.2162 13.9256C55.3394 15.0686 55.3394 16.9218 54.2162 18.0648L33.8092 38.8312C32.686 39.9741 30.8649 39.9741 29.7417 38.8312L16.8993 25.7629C15.7761 24.62 15.7761 22.7667 16.8993 21.6237L37.3066 0.857268C38.4298 -0.285756 40.2509 -0.285756 41.374 0.857268L54.2162 13.9256Z" fill="#7A67FF"/>
    <path d="M38.5563 13.9256C39.6795 15.0686 39.6795 16.9218 38.5563 18.0648L18.1492 38.8312C17.026 39.9741 15.2049 39.9741 14.0816 38.8312L1.23941 25.7629C0.116161 24.62 0.116161 22.7667 1.23941 21.6237L21.6466 0.857268C22.7698 -0.285756 24.591 -0.285756 25.7141 0.857268L38.5563 13.9256Z" fill="#C082FF"/>
    <path d="M66 29.7113V10H73.6219C75.0608 10 76.2565 10.2246 77.2093 10.6737C78.1685 11.1165 78.8847 11.7228 79.3578 12.4928C79.8374 13.2628 80.0772 14.1354 80.0772 15.1107C80.0772 15.9127 79.9217 16.5993 79.6106 17.1704C79.2995 17.735 78.8814 18.1938 78.3565 18.5467C77.8315 18.8996 77.2449 19.153 76.5968 19.307V19.4995C77.3033 19.538 77.9806 19.753 78.6287 20.1444C79.2833 20.5294 79.818 21.0748 80.2328 21.7806C80.6476 22.4864 80.855 23.3397 80.855 24.3407C80.855 25.3609 80.6055 26.2785 80.1064 27.0934C79.6073 27.9018 78.8555 28.5403 77.8509 29.0087C76.8463 29.4771 75.5825 29.7113 74.0594 29.7113H66ZM69.6068 26.7276H73.4858C74.795 26.7276 75.7381 26.4806 76.3149 25.9865C76.8982 25.486 77.1898 24.8444 77.1898 24.0616C77.1898 23.4777 77.044 22.9516 76.7524 22.4832C76.4607 22.0083 76.0459 21.6362 75.508 21.3667C74.97 21.0908 74.3284 20.9528 73.583 20.9528H69.6068V26.7276ZM69.6068 18.3831H73.1747C73.7969 18.3831 74.3575 18.2708 74.8566 18.0462C75.3557 17.8152 75.7478 17.4912 76.0329 17.0741C76.3246 16.6506 76.4704 16.1501 76.4704 15.5727C76.4704 14.8091 76.1982 14.1803 75.6538 13.6862C75.1159 13.1922 74.3154 12.9451 73.2525 12.9451H69.6068V18.3831Z" fill="white"/>
    <path d="M90.3508 30C88.8925 30 87.6287 29.6824 86.5593 29.0472C85.4899 28.4119 84.6603 27.5233 84.0705 26.3811C83.4872 25.239 83.1955 23.9044 83.1955 22.3773C83.1955 20.8502 83.4872 19.5124 84.0705 18.3638C84.6603 17.2153 85.4899 16.3234 86.5593 15.6882C87.6287 15.0529 88.8925 14.7353 90.3508 14.7353C91.8091 14.7353 93.0729 15.0529 94.1423 15.6882C95.2117 16.3234 96.0381 17.2153 96.6214 18.3638C97.2112 19.5124 97.5061 20.8502 97.5061 22.3773C97.5061 23.9044 97.2112 25.239 96.6214 26.3811C96.0381 27.5233 95.2117 28.4119 94.1423 29.0472C93.0729 29.6824 91.8091 30 90.3508 30ZM90.3702 27.2089C91.1609 27.2089 91.822 26.9939 92.3535 26.564C92.885 26.1277 93.2803 25.5438 93.5396 24.8123C93.8053 24.0808 93.9382 23.266 93.9382 22.3677C93.9382 21.4629 93.8053 20.6448 93.5396 19.9134C93.2803 19.1755 92.885 18.5884 92.3535 18.1521C91.822 17.7158 91.1609 17.4976 90.3702 17.4976C89.5601 17.4976 88.886 17.7158 88.3481 18.1521C87.8166 18.5884 87.418 19.1755 87.1523 19.9134C86.8931 20.6448 86.7634 21.4629 86.7634 22.3677C86.7634 23.266 86.8931 24.0808 87.1523 24.8123C87.418 25.5438 87.8166 26.1277 88.3481 26.564C88.886 26.9939 89.5601 27.2089 90.3702 27.2089Z" fill="white"/>
    <path d="M100.493 29.7113V14.9278H103.905V17.3917H104.061C104.333 16.5383 104.8 15.8807 105.461 15.4187C106.129 14.9503 106.89 14.7161 107.746 14.7161C107.94 14.7161 108.157 14.7257 108.397 14.7449C108.643 14.7578 108.847 14.7802 109.009 14.8123V18.0173C108.86 17.966 108.624 17.9211 108.3 17.8826C107.982 17.8377 107.674 17.8152 107.376 17.8152C106.735 17.8152 106.158 17.9532 105.646 18.2291C105.14 18.4986 104.742 18.8739 104.45 19.3551C104.158 19.8364 104.012 20.3914 104.012 21.0202V29.7113H100.493Z" fill="white"/>
    <path d="M116.274 29.9711C115.101 29.9711 114.051 29.6728 113.124 29.076C112.197 28.4793 111.465 27.6131 110.927 26.4774C110.389 25.3417 110.12 23.9621 110.12 22.3388C110.12 20.6962 110.392 19.3102 110.937 18.1809C111.488 17.0452 112.23 16.1886 113.163 15.6112C114.096 15.0273 115.137 14.7353 116.284 14.7353C117.159 14.7353 117.878 14.8829 118.442 15.1781C119.006 15.4668 119.453 15.8165 119.784 16.2271C120.114 16.6314 120.37 17.0132 120.552 17.3725H120.698V10H124.227V29.7113H120.766V27.3821H120.552C120.37 27.7414 120.108 28.1232 119.764 28.5274C119.421 28.9252 118.967 29.2653 118.403 29.5476C117.839 29.83 117.13 29.9711 116.274 29.9711ZM117.256 27.1126C118.001 27.1126 118.637 26.9137 119.161 26.5159C119.686 26.1116 120.085 25.5502 120.357 24.8316C120.629 24.1129 120.766 23.2756 120.766 22.3195C120.766 21.3635 120.629 20.5326 120.357 19.8268C120.092 19.1209 119.696 18.5723 119.171 18.1809C118.653 17.7895 118.014 17.5938 117.256 17.5938C116.472 17.5938 115.817 17.796 115.292 18.2002C114.767 18.6044 114.372 19.1627 114.106 19.8749C113.84 20.5871 113.708 21.402 113.708 22.3195C113.708 23.2435 113.84 24.068 114.106 24.7931C114.378 25.5117 114.777 26.0796 115.302 26.4966C115.833 26.9073 116.485 27.1126 117.256 27.1126Z" fill="white"/>
    <path d="M134.588 30C133.09 30 131.797 29.692 130.709 29.076C129.626 28.4536 128.793 27.5746 128.21 26.4389C127.627 25.2968 127.335 23.9525 127.335 22.4062C127.335 20.8855 127.627 19.5508 128.21 18.4023C128.8 17.2474 129.623 16.3491 130.679 15.7074C131.736 15.0594 132.977 14.7353 134.403 14.7353C135.323 14.7353 136.192 14.8829 137.008 15.1781C137.831 15.4668 138.557 15.9159 139.186 16.5255C139.821 17.1351 140.32 17.9115 140.683 18.8547C141.046 19.7915 141.228 20.9079 141.228 22.204V23.2724H128.988V20.924H137.854C137.848 20.2567 137.702 19.6631 137.417 19.1434C137.132 18.6173 136.733 18.2034 136.221 17.9018C135.715 17.6003 135.126 17.4495 134.452 17.4495C133.732 17.4495 133.1 17.6227 132.556 17.9692C132.011 18.3093 131.587 18.7584 131.282 19.3167C130.984 19.8685 130.832 20.4748 130.825 21.1357V23.1858C130.825 24.0456 130.984 24.7834 131.302 25.3994C131.619 26.009 132.063 26.4774 132.634 26.8046C133.204 27.1254 133.871 27.2859 134.636 27.2859C135.148 27.2859 135.612 27.2153 136.026 27.0741C136.441 26.9265 136.801 26.7116 137.106 26.4293C137.41 26.1469 137.64 25.7972 137.796 25.3802L141.082 25.7459C140.874 26.6057 140.479 27.3564 139.896 27.9981C139.319 28.6333 138.58 29.1274 137.679 29.4803C136.778 29.8268 135.748 30 134.588 30Z" fill="white"/>
    <path d="M144.205 29.7113V14.9278H147.617V17.3917H147.773C148.045 16.5383 148.512 15.8807 149.173 15.4187C149.84 14.9503 150.602 14.7161 151.457 14.7161C151.652 14.7161 151.869 14.7257 152.109 14.7449C152.355 14.7578 152.559 14.7802 152.721 14.8123V18.0173C152.572 17.966 152.336 17.9211 152.012 17.8826C151.694 17.8377 151.386 17.8152 151.088 17.8152C150.446 17.8152 149.87 17.9532 149.358 18.2291C148.852 18.4986 148.453 18.8739 148.162 19.3551C147.87 19.8364 147.724 20.3914 147.724 21.0202V29.7113H144.205Z" fill="white"/>
    <path d="M163.442 20.0674V22.9355H154.479V20.0674H163.442Z" fill="white"/>
    <path d="M170.906 10V29.7113H167.299V10H170.906Z" fill="white"/>
    <path d="M177.369 29.7113H173.519L180.528 10H184.981L192 29.7113H188.15L182.832 14.0423H182.677L177.369 29.7113ZM177.495 21.9827H187.995V24.8508H177.495V21.9827Z" fill="white"/>
  </g>
  <defs>
    <clipPath id="clip0_207_41">
      <rect width="192" height="40" fill="white"/>
    </clipPath>
  </defs>
</svg>
