<svg width="32" height="33" viewBox="0 0 32 33" fill="none" xmlns="http://www.w3.org/2000/svg">
  <g clip-path="url(#clip0_207_1607)">
    <path d="M11.5 19.1973C12.3284 19.1973 13 18.5257 13 17.6973C13 16.8688 12.3284 16.1973 11.5 16.1973C10.6716 16.1973 10 16.8688 10 17.6973C10 18.5257 10.6716 19.1973 11.5 19.1973Z" fill="#A1A1AA"/>
    <path d="M20.5 19.1973C21.3284 19.1973 22 18.5257 22 17.6973C22 16.8688 21.3284 16.1973 20.5 16.1973C19.6716 16.1973 19 16.8688 19 17.6973C19 18.5257 19.6716 19.1973 20.5 19.1973Z" fill="#A1A1AA"/>
    <path d="M19.18 9.4085L19.805 6.95475C19.8674 6.70787 20.0206 6.49358 20.2339 6.35458C20.4473 6.21558 20.7052 6.16208 20.9562 6.20475L25.4613 6.94724C25.6558 6.97883 25.8369 7.06668 25.9822 7.19995C26.1275 7.33322 26.2305 7.50609 26.2787 7.69724L29.97 22.2435C30.0264 22.4722 30.0003 22.7134 29.8962 22.9247C29.7922 23.136 29.6169 23.3038 29.4013 23.3985L21.0263 27.111C20.8992 27.1687 20.7616 27.1996 20.622 27.202C20.4825 27.2043 20.344 27.1779 20.215 27.1244C20.0861 27.071 19.9695 26.9916 19.8726 26.8913C19.7756 26.7909 19.7002 26.6717 19.6513 26.541L18.375 23.0797" stroke="#A1A1AA" stroke-width="2" stroke-linecap="round" stroke-linejoin="round"/>
    <path d="M12.82 9.4085L12.195 6.95475C12.1326 6.70787 11.9794 6.49358 11.7661 6.35458C11.5527 6.21558 11.2948 6.16208 11.0438 6.20475L6.53875 6.94724C6.34416 6.97883 6.16307 7.06668 6.01781 7.19995C5.87254 7.33322 5.76945 7.50609 5.72125 7.69724L2.03 22.241C1.97361 22.4697 1.99974 22.7109 2.10379 22.9222C2.20783 23.1335 2.38312 23.3013 2.59875 23.396L10.9738 27.1085C11.1008 27.1662 11.2384 27.1971 11.378 27.1995C11.5175 27.2018 11.656 27.1754 11.785 27.1219C11.9139 27.0685 12.0305 26.9891 12.1274 26.8888C12.2244 26.7884 12.2998 26.6692 12.3488 26.5385L13.625 23.0797" stroke="#A1A1AA" stroke-width="2" stroke-linecap="round" stroke-linejoin="round"/>
    <path d="M10 9.98605C11.955 9.45254 13.9735 9.1872 16 9.1973C18.0265 9.1872 20.045 9.45254 22 9.98605" stroke="#A1A1AA" stroke-width="2" stroke-linecap="round" stroke-linejoin="round"/>
    <path d="M22 22.4086C20.045 22.9421 18.0265 23.2074 16 23.1973C13.9735 23.2074 11.955 22.9421 10 22.4086" stroke="#A1A1AA" stroke-width="2" stroke-linecap="round" stroke-linejoin="round"/>
  </g>
  <defs>
    <clipPath id="clip0_207_1607">
      <rect width="32" height="32" fill="white" transform="translate(0 0.197266)"/>
    </clipPath>
  </defs>
</svg>