<svg width="32" height="33" viewBox="0 0 32 33" fill="none" xmlns="http://www.w3.org/2000/svg">
  <g clip-path="url(#clip0_207_1616)">
    <path d="M14.9788 7.19727C14.3909 6.27737 13.5809 5.52033 12.6234 4.99602C11.6658 4.47171 10.5917 4.19701 9.5 4.19727C9.0144 5.03683 8.72314 5.97456 8.64765 6.9415C8.57215 7.90844 8.71434 8.88001 9.06375 9.78477C8.37968 10.7921 8.00951 11.9796 8 13.1973V14.1973C8 15.7886 8.63214 17.3147 9.75736 18.4399C10.8826 19.5651 12.4087 20.1973 14 20.1973H20C21.5913 20.1973 23.1174 19.5651 24.2426 18.4399C25.3679 17.3147 26 15.7886 26 14.1973V13.1973C25.9905 11.9796 25.6203 10.7921 24.9363 9.78477C25.2857 8.88001 25.4278 7.90844 25.3524 6.9415C25.2769 5.97456 24.9856 5.03683 24.5 4.19727C23.4083 4.19701 22.3342 4.47171 21.3766 4.99602C20.4191 5.52033 19.6091 6.27737 19.0212 7.19727H14.9788Z" stroke="#A1A1AA" stroke-width="2" stroke-linecap="round" stroke-linejoin="round"/>
    <path d="M13 29.1973V24.1973C13 23.1364 13.4214 22.119 14.1716 21.3688C14.9217 20.6187 15.9391 20.1973 17 20.1973C18.0609 20.1973 19.0783 20.6187 19.8284 21.3688C20.5786 22.119 21 23.1364 21 24.1973V29.1973" stroke="#A1A1AA" stroke-width="2" stroke-linecap="round" stroke-linejoin="round"/>
    <path d="M13 26.1973H9C7.93913 26.1973 6.92172 25.7758 6.17157 25.0257C5.42143 24.2755 5 23.2581 5 22.1973C5 21.1364 4.57857 20.119 3.82843 19.3688C3.07828 18.6187 2.06087 18.1973 1 18.1973" stroke="#A1A1AA" stroke-width="2" stroke-linecap="round" stroke-linejoin="round"/>
  </g>
  <defs>
    <clipPath id="clip0_207_1616">
      <rect width="32" height="32" fill="white" transform="translate(0 0.197266)"/>
    </clipPath>
  </defs>
</svg>