<svg width="18" height="19" viewBox="0 0 18 19" fill="none" xmlns="http://www.w3.org/2000/svg">
  <g clip-path="url(#clip0_207_1515)">
    <path d="M5.76193 12.3936L2.17443 11.0742C2.06894 11.0353 1.97792 10.9649 1.91363 10.8727C1.84935 10.7804 1.81488 10.6707 1.81488 10.5582C1.81488 10.4458 1.84935 10.336 1.91363 10.2438C1.97792 10.1515 2.06894 10.0812 2.17443 10.0423L5.76193 8.72281C5.83662 8.69546 5.90446 8.65215 5.96071 8.5959C6.01696 8.53965 6.06027 8.47182 6.08762 8.39712L7.40707 4.80962C7.446 4.70413 7.51634 4.61311 7.60859 4.54883C7.70085 4.48454 7.81059 4.45007 7.92304 4.45007C8.03548 4.45007 8.14523 4.48454 8.23748 4.54883C8.32974 4.61311 8.40007 4.70413 8.43901 4.80962L9.75845 8.39712C9.78581 8.47182 9.82912 8.53965 9.88537 8.5959C9.94161 8.65215 10.0095 8.69546 10.0841 8.72281L13.6716 10.0423C13.7771 10.0812 13.8682 10.1515 13.9324 10.2438C13.9967 10.336 14.0312 10.4458 14.0312 10.5582C14.0312 10.6707 13.9967 10.7804 13.9324 10.8727C13.8682 10.9649 13.7771 11.0353 13.6716 11.0742L10.0841 12.3936C10.0095 12.421 9.94161 12.4643 9.88537 12.5206C9.82912 12.5768 9.78581 12.6446 9.75845 12.7193L8.43901 16.3068C8.40007 16.4123 8.32974 16.5033 8.23748 16.5676C8.14523 16.6319 8.03548 16.6664 7.92304 16.6664C7.81059 16.6664 7.70085 16.6319 7.60859 16.5676C7.51634 16.5033 7.446 16.4123 7.40707 16.3068L6.08762 12.7193C6.06027 12.6446 6.01696 12.5768 5.96071 12.5206C5.90446 12.4643 5.83662 12.421 5.76193 12.3936Z" stroke="#FAFAFA" stroke-width="1.11111" stroke-linecap="round" stroke-linejoin="round"/>
    <path d="M12.3705 1.66669V5.00002" stroke="#FAFAFA" stroke-width="1.11111" stroke-linecap="round" stroke-linejoin="round"/>
    <path d="M15.7036 5.55554V7.77776" stroke="#FAFAFA" stroke-width="1.11111" stroke-linecap="round" stroke-linejoin="round"/>
    <path d="M10.7037 3.33337H14.037" stroke="#FAFAFA" stroke-width="1.11111" stroke-linecap="round" stroke-linejoin="round"/>
    <path d="M14.5928 6.66663H16.8151" stroke="#FAFAFA" stroke-width="1.11111" stroke-linecap="round" stroke-linejoin="round"/>
  </g>
  <defs>
    <clipPath id="clip0_207_1515">
      <rect width="17.7778" height="17.7778" fill="white" transform="translate(0.148132 0.555603)"/>
    </clipPath>
  </defs>
</svg>
