<svg width="32" height="33" viewBox="0 0 32 33" fill="none" xmlns="http://www.w3.org/2000/svg">
  <g clip-path="url(#clip0_207_1532)">
    <path d="M10.105 21.5061L3.64749 19.1311C3.45761 19.061 3.29377 18.9344 3.17806 18.7684C3.06234 18.6023 3.00031 18.4048 3.00031 18.2024C3.00031 18 3.06234 17.8024 3.17806 17.6364C3.29377 17.4703 3.45761 17.3437 3.64749 17.2736L10.105 14.8986C10.2394 14.8494 10.3616 14.7714 10.4628 14.6702C10.564 14.5689 10.642 14.4468 10.6912 14.3124L13.0662 7.85489C13.1363 7.66501 13.2629 7.50117 13.429 7.38546C13.595 7.26974 13.7926 7.2077 13.995 7.2077C14.1974 7.2077 14.3949 7.26974 14.561 7.38546C14.727 7.50117 14.8537 7.66501 14.9237 7.85489L17.2987 14.3124C17.348 14.4468 17.4259 14.5689 17.5272 14.6702C17.6284 14.7714 17.7505 14.8494 17.885 14.8986L24.3425 17.2736C24.5324 17.3437 24.6962 17.4703 24.8119 17.6364C24.9276 17.8024 24.9897 18 24.9897 18.2024C24.9897 18.4048 24.9276 18.6023 24.8119 18.7684C24.6962 18.9344 24.5324 19.061 24.3425 19.1311L17.885 21.5061C17.7505 21.5554 17.6284 21.6333 17.5272 21.7346C17.4259 21.8358 17.348 21.9579 17.2987 22.0924L14.9237 28.5499C14.8537 28.7398 14.727 28.9036 14.561 29.0193C14.3949 29.135 14.1974 29.1971 13.995 29.1971C13.7926 29.1971 13.595 29.135 13.429 29.0193C13.2629 28.9036 13.1363 28.7398 13.0662 28.5499L10.6912 22.0924C10.642 21.9579 10.564 21.8358 10.4628 21.7346C10.3616 21.6333 10.2394 21.5554 10.105 21.5061Z" stroke="#A1A1AA" stroke-width="1.5" stroke-linecap="round" stroke-linejoin="round"/>
    <path d="M22 2.19739V8.19739" stroke="#F4F4F5" stroke-width="1.5" stroke-linecap="round" stroke-linejoin="round"/>
    <path d="M28 9.19739V13.1974" stroke="#F4F4F5" stroke-width="1.5" stroke-linecap="round" stroke-linejoin="round"/>
    <path d="M19 5.19739H25" stroke="#F4F4F5" stroke-width="1.5" stroke-linecap="round" stroke-linejoin="round"/>
    <path d="M26 11.1974H30" stroke="#F4F4F5" stroke-width="1.5" stroke-linecap="round" stroke-linejoin="round"/>
  </g>
  <defs>
    <clipPath id="clip0_207_1532">
      <rect width="32" height="32" fill="white" transform="translate(0 0.197388)"/>
    </clipPath>
  </defs>
</svg>
